<?xml version="1.0" encoding="UTF-8"?>
<!DOCTYPE svg PUBLIC "-//W3C//DTD SVG 1.1//EN" "http://www.w3.org/Graphics/SVG/1.1/DTD/svg11.dtd">
<svg xmlns="http://www.w3.org/2000/svg" version="1.1" width="191px" height="399px" style="shape-rendering:geometricPrecision; text-rendering:geometricPrecision; image-rendering:optimizeQuality; fill-rule:evenodd; clip-rule:evenodd" xmlns:xlink="http://www.w3.org/1999/xlink">
<g><path style="opacity:1" fill="#f8f8f8" d="M -0.5,-0.5 C 63.1667,-0.5 126.833,-0.5 190.5,-0.5C 190.5,132.5 190.5,265.5 190.5,398.5C 126.833,398.5 63.1667,398.5 -0.5,398.5C -0.5,265.5 -0.5,132.5 -0.5,-0.5 Z"/></g>
<g><path style="opacity:1" fill="#070707" d="M 153.5,45.5 C 152.833,46.1667 152.167,46.8333 151.5,47.5C 151.489,45.9826 150.823,44.8159 149.5,44C 144.871,41.1021 140.037,38.6021 135,36.5C 134.51,37.7932 134.343,39.1266 134.5,40.5C 134.5,41.1667 134.167,41.5 133.5,41.5C 133.739,39.5328 133.406,37.6995 132.5,36C 128.203,34.8423 123.869,33.8423 119.5,33C 100.433,30.6873 81.4329,31.0206 62.5,34C 56.7688,35.7994 51.1021,37.7994 45.5,40C 43.5993,43.6441 41.5993,47.1441 39.5,50.5C 39.9239,47.646 40.9239,44.9793 42.5,42.5C 41.2713,41.7189 39.938,41.2189 38.5,41C 37.9415,40.2753 37.6082,39.4419 37.5,38.5C 40.2957,31.216 45.629,27.0493 53.5,26C 82.2066,21.186 110.873,21.5193 139.5,27C 145.486,28.4082 150.652,31.2415 155,35.5C 157.049,39.2848 156.549,42.6182 153.5,45.5 Z"/></g>
<g><path style="opacity:1" fill="#f8f8f8" d="M 133.5,41.5 C 135.088,53.8756 136.922,66.2089 139,78.5C 138.307,65.6306 136.807,52.9639 134.5,40.5C 134.343,39.1266 134.51,37.7932 135,36.5C 140.037,38.6021 144.871,41.1021 149.5,44C 150.823,44.8159 151.489,45.9826 151.5,47.5C 158.24,72.5081 162.24,98.0081 163.5,124C 163.167,126.833 162.833,129.667 162.5,132.5C 156.738,135.846 151.738,135.013 147.5,130C 145.975,128.991 144.308,128.491 142.5,128.5C 141.391,127.71 140.058,127.21 138.5,127C 109.833,126.333 81.1667,126.333 52.5,127C 49.4006,127.387 46.734,128.554 44.5,130.5C 42.4559,131.031 40.7893,132.198 39.5,134C 37.8333,134.333 36.1667,134.667 34.5,135C 35.5,135.333 36.5,135.667 37.5,136C 36.7476,136.671 36.4142,137.504 36.5,138.5C 36.6716,139.492 36.3382,140.158 35.5,140.5C 34.0735,142.148 33.2401,144.148 33,146.5C 32.3333,185.167 32.3333,223.833 33,262.5C 33.21,264.058 33.71,265.391 34.5,266.5C 34.7512,268.17 35.4178,269.67 36.5,271C 34.8333,271.833 33.1667,272.667 31.5,273.5C 30.5059,268.544 30.1725,263.544 30.5,258.5C 30.8205,253.305 30.4872,248.305 29.5,243.5C 29.8288,230.323 29.4955,217.323 28.5,204.5C 28.5,181.833 28.5,159.167 28.5,136.5C 28.8807,135.069 29.8807,134.236 31.5,134C 30.552,133.517 29.552,133.351 28.5,133.5C 28.5,130.167 28.5,126.833 28.5,123.5C 29.4614,121.735 29.7947,119.735 29.5,117.5C 30.0661,94.731 33.3994,72.3976 39.5,50.5C 41.5993,47.1441 43.5993,43.6441 45.5,40C 51.1021,37.7994 56.7688,35.7994 62.5,34C 81.4329,31.0206 100.433,30.6873 119.5,33C 123.869,33.8423 128.203,34.8423 132.5,36C 133.406,37.6995 133.739,39.5328 133.5,41.5 Z"/></g>
<g><path style="opacity:1" fill="#4f4f4f" d="M 134.5,40.5 C 136.807,52.9639 138.307,65.6306 139,78.5C 136.922,66.2089 135.088,53.8756 133.5,41.5C 134.167,41.5 134.5,41.1667 134.5,40.5 Z"/></g>
<g><path style="opacity:1" fill="#4b4b4b" d="M 58.5,36.5 C 59.6378,39.3035 59.8045,42.3035 59,45.5C 57.1081,56.5182 55.1081,67.5182 53,78.5C 54.5932,64.5106 56.4266,50.5106 58.5,36.5 Z"/></g>
<g><path style="opacity:1" fill="#494949" d="M 39.5,50.5 C 33.3994,72.3976 30.0661,94.731 29.5,117.5C 28.5318,115.393 28.1984,113.059 28.5,110.5C 29.0679,92.8896 31.5679,75.5562 36,58.5C 36.7048,55.5243 37.8714,52.8577 39.5,50.5 Z"/></g>
<g><path style="opacity:1" fill="#8d8d8d" d="M 28.5,110.5 C 28.1984,113.059 28.5318,115.393 29.5,117.5C 29.7947,119.735 29.4614,121.735 28.5,123.5C 28.7373,122.209 28.404,121.209 27.5,120.5C 27.1872,116.958 27.5206,113.625 28.5,110.5 Z"/></g>
<g><path style="opacity:1" fill="#676767" d="M 142.5,128.5 C 111.498,128.333 80.4982,128.5 49.5,129C 48.0953,130.269 46.4286,130.769 44.5,130.5C 46.734,128.554 49.4006,127.387 52.5,127C 81.1667,126.333 109.833,126.333 138.5,127C 140.058,127.21 141.391,127.71 142.5,128.5 Z"/></g>
<g><path style="opacity:1" fill="#f9f9f9" d="M 142.5,128.5 C 150.509,131.848 155.175,137.848 156.5,146.5C 156.5,184.833 156.5,223.167 156.5,261.5C 155.571,268.027 152.571,273.36 147.5,277.5C 145.847,277.66 144.514,278.326 143.5,279.5C 113.187,280.461 82.8541,280.794 52.5,280.5C 50.4006,279.388 48.0673,278.721 45.5,278.5C 45.0269,277.094 44.0269,276.427 42.5,276.5C 41.5,274.833 40.1667,273.5 38.5,272.5C 37.242,270.313 36.242,267.98 35.5,265.5C 34.172,223.846 34.172,182.179 35.5,140.5C 36.3382,140.158 36.6716,139.492 36.5,138.5C 39.4729,136.194 42.1395,133.527 44.5,130.5C 46.4286,130.769 48.0953,130.269 49.5,129C 80.4982,128.5 111.498,128.333 142.5,128.5 Z"/></g>
<g><path style="opacity:1" fill="#444444" d="M 153.5,45.5 C 161.279,78.0102 165.446,111.01 166,144.5C 166.5,166.831 166.667,189.164 166.5,211.5C 165.833,211.5 165.5,211.167 165.5,210.5C 165.916,184.799 165.249,159.132 163.5,133.5C 160.558,134.819 157.558,135.985 154.5,137C 156.404,139.877 157.404,143.044 157.5,146.5C 157.167,146.5 156.833,146.5 156.5,146.5C 155.175,137.848 150.509,131.848 142.5,128.5C 144.308,128.491 145.975,128.991 147.5,130C 151.738,135.013 156.738,135.846 162.5,132.5C 162.833,129.667 163.167,126.833 163.5,124C 162.24,98.0081 158.24,72.5081 151.5,47.5C 152.167,46.8333 152.833,46.1667 153.5,45.5 Z"/></g>
<g><path style="opacity:1" fill="#161616" d="M 27.5,120.5 C 28.404,121.209 28.7373,122.209 28.5,123.5C 28.5,126.833 28.5,130.167 28.5,133.5C 29.552,133.351 30.552,133.517 31.5,134C 29.8807,134.236 28.8807,135.069 28.5,136.5C 28.1667,136.5 27.8333,136.5 27.5,136.5C 27.5,131.167 27.5,125.833 27.5,120.5 Z"/></g>
<g><path style="opacity:1" fill="#313131" d="M 44.5,130.5 C 42.1395,133.527 39.4729,136.194 36.5,138.5C 36.4142,137.504 36.7476,136.671 37.5,136C 36.5,135.667 35.5,135.333 34.5,135C 36.1667,134.667 37.8333,134.333 39.5,134C 40.7893,132.198 42.4559,131.031 44.5,130.5 Z"/></g>
<g><path style="opacity:1" fill="#f6f6f6" d="M 165.5,210.5 C 164.517,214.298 164.183,218.298 164.5,222.5C 164.536,231.185 164.203,239.851 163.5,248.5C 163.496,257.218 162.829,265.884 161.5,274.5C 159.167,273.333 156.833,272.167 154.5,271C 156.795,268.243 157.795,265.077 157.5,261.5C 158.833,223.167 158.833,184.833 157.5,146.5C 157.404,143.044 156.404,139.877 154.5,137C 157.558,135.985 160.558,134.819 163.5,133.5C 165.249,159.132 165.916,184.799 165.5,210.5 Z"/></g>
<g><path style="opacity:1" fill="#5d5d5d" d="M 27.5,136.5 C 27.8333,136.5 28.1667,136.5 28.5,136.5C 28.5,159.167 28.5,181.833 28.5,204.5C 28.7373,205.791 28.404,206.791 27.5,207.5C 26.4759,183.814 26.4759,160.148 27.5,136.5 Z"/></g>
<g><path style="opacity:1" fill="#6b6b6b" d="M 35.5,140.5 C 34.172,182.179 34.172,223.846 35.5,265.5C 34.8333,265.5 34.5,265.833 34.5,266.5C 33.71,265.391 33.21,264.058 33,262.5C 32.3333,223.833 32.3333,185.167 33,146.5C 33.2401,144.148 34.0735,142.148 35.5,140.5 Z"/></g>
<g><path style="opacity:1" fill="#727272" d="M 156.5,146.5 C 156.833,146.5 157.167,146.5 157.5,146.5C 158.833,184.833 158.833,223.167 157.5,261.5C 157.167,261.5 156.833,261.5 156.5,261.5C 156.5,223.167 156.5,184.833 156.5,146.5 Z"/></g>
<g><path style="opacity:1" fill="#535353" d="M 28.5,204.5 C 29.4955,217.323 29.8288,230.323 29.5,243.5C 29.7373,244.791 29.404,245.791 28.5,246.5C 28.4996,233.489 28.1662,220.489 27.5,207.5C 28.404,206.791 28.7373,205.791 28.5,204.5 Z"/></g>
<g><path style="opacity:1" fill="#767676" d="M 165.5,210.5 C 165.5,211.167 165.833,211.5 166.5,211.5C 166.818,216.032 166.485,220.366 165.5,224.5C 165.672,223.508 165.338,222.842 164.5,222.5C 164.183,218.298 164.517,214.298 165.5,210.5 Z"/></g>
<g><path style="opacity:1" fill="#4e4e4e" d="M 164.5,222.5 C 165.338,222.842 165.672,223.508 165.5,224.5C 165.801,232.586 165.467,240.586 164.5,248.5C 164.167,248.5 163.833,248.5 163.5,248.5C 164.203,239.851 164.536,231.185 164.5,222.5 Z"/></g>
<g><path style="opacity:1" fill="#7b7b7b" d="M 29.5,243.5 C 30.4872,248.305 30.8205,253.305 30.5,258.5C 29.596,259.209 29.2627,260.209 29.5,261.5C 28.5128,256.695 28.1795,251.695 28.5,246.5C 29.404,245.791 29.7373,244.791 29.5,243.5 Z"/></g>
<g><path style="opacity:1" fill="#383838" d="M 163.5,248.5 C 163.833,248.5 164.167,248.5 164.5,248.5C 164.663,257.895 163.996,267.228 162.5,276.5C 159.833,275.167 157.167,273.833 154.5,272.5C 152.408,274.605 150.075,276.272 147.5,277.5C 152.571,273.36 155.571,268.027 156.5,261.5C 156.833,261.5 157.167,261.5 157.5,261.5C 157.795,265.077 156.795,268.243 154.5,271C 156.833,272.167 159.167,273.333 161.5,274.5C 162.829,265.884 163.496,257.218 163.5,248.5 Z"/></g>
<g><path style="opacity:1" fill="#444444" d="M 38.5,272.5 C 40.1667,273.5 41.5,274.833 42.5,276.5C 40.1667,276.167 38.8333,274.833 38.5,272.5 Z"/></g>
<g><path style="opacity:1" fill="#373737" d="M 42.5,276.5 C 44.0269,276.427 45.0269,277.094 45.5,278.5C 43.9731,278.573 42.9731,277.906 42.5,276.5 Z"/></g>
<g><path style="opacity:1" fill="#3f3f3f" d="M 147.5,277.5 C 146.713,279.104 145.38,279.771 143.5,279.5C 144.514,278.326 145.847,277.66 147.5,277.5 Z"/></g>
<g><path style="opacity:1" fill="#6b6b6b" d="M 45.5,278.5 C 48.0673,278.721 50.4006,279.388 52.5,280.5C 51.8333,280.5 51.5,280.833 51.5,281.5C 49.1815,281.008 47.1815,280.008 45.5,278.5 Z"/></g>
<g><path style="opacity:1" fill="#1d1d1d" d="M 143.5,279.5 C 143.082,280.222 142.416,280.722 141.5,281C 111.502,281.5 81.5019,281.667 51.5,281.5C 51.5,280.833 51.8333,280.5 52.5,280.5C 82.8541,280.794 113.187,280.461 143.5,279.5 Z"/></g>
<g><path style="opacity:1" fill="#464646" d="M 161.5,277.5 C 162.288,287.379 161.788,297.379 160,307.5C 159.769,297.473 160.269,287.473 161.5,277.5 Z"/></g>
<g><path style="opacity:1" fill="#1e1e1e" d="M 148.5,337.5 C 147.833,337.5 147.5,337.167 147.5,336.5C 147.669,331.819 148.002,327.152 148.5,322.5C 114.833,322.5 81.1667,322.5 47.5,322.5C 47.5,325.167 47.5,327.833 47.5,330.5C 47.1667,330.5 46.8333,330.5 46.5,330.5C 46.5,327.5 46.5,324.5 46.5,321.5C 80.8333,321.5 115.167,321.5 149.5,321.5C 149.313,326.845 148.98,332.178 148.5,337.5 Z"/></g>
<g><path style="opacity:1" fill="#4a4a4a" d="M 30.5,258.5 C 30.1725,263.544 30.5059,268.544 31.5,273.5C 33.1667,272.667 34.8333,271.833 36.5,271C 35.4178,269.67 34.7512,268.17 34.5,266.5C 34.5,265.833 34.8333,265.5 35.5,265.5C 36.242,267.98 37.242,270.313 38.5,272.5C 32.5597,273.231 30.2264,276.731 31.5,283C 32.4658,306.533 35.7991,329.7 41.5,352.5C 41.1667,352.5 40.8333,352.5 40.5,352.5C 32.605,322.825 28.9383,292.492 29.5,261.5C 29.2627,260.209 29.596,259.209 30.5,258.5 Z"/></g>
<g><path style="opacity:1" fill="#5b5b5b" d="M 46.5,330.5 C 46.8333,330.5 47.1667,330.5 47.5,330.5C 48.4485,337.242 49.7818,343.909 51.5,350.5C 48.0739,344.399 46.4073,337.732 46.5,330.5 Z"/></g>
<g><path style="opacity:1" fill="#4d4d4d" d="M 151.5,359.5 C 150.833,359.5 150.167,359.5 149.5,359.5C 153.752,342.737 156.919,325.737 159,308.5C 158.024,325.695 155.524,342.695 151.5,359.5 Z"/></g>
<g><path style="opacity:1" fill="#4f4f4f" d="M 147.5,336.5 C 147.5,337.167 147.833,337.5 148.5,337.5C 147.747,343.51 145.914,349.177 143,354.5C 140.274,356.964 137.107,357.797 133.5,357C 136.543,356.202 139.376,355.035 142,353.5C 144.532,347.939 146.366,342.272 147.5,336.5 Z"/></g>
<g><path style="opacity:1" fill="#3c3c3c" d="M 51.5,350.5 C 52.9063,350.973 53.573,351.973 53.5,353.5C 52.0937,353.027 51.427,352.027 51.5,350.5 Z"/></g>
<g><path style="opacity:1" fill="#4b4b4b" d="M 53.5,353.5 C 55.4044,353.738 56.7377,354.738 57.5,356.5C 55.5956,356.262 54.2623,355.262 53.5,353.5 Z"/></g>
<g><path style="opacity:1" fill="#060606" d="M 40.5,352.5 C 40.8333,352.5 41.1667,352.5 41.5,352.5C 42.2543,355.091 43.921,356.924 46.5,358C 56.9142,364.437 68.2475,367.77 80.5,368C 96.2248,368.793 111.892,368.126 127.5,366C 135.037,364.121 142.371,361.954 149.5,359.5C 150.167,359.5 150.833,359.5 151.5,359.5C 152.822,359.33 153.989,359.663 155,360.5C 155.138,367.549 151.638,371.882 144.5,373.5C 143.719,374.729 143.219,376.062 143,377.5C 142.275,378.059 141.442,378.392 140.5,378.5C 138.471,377.449 136.637,376.115 135,374.5C 110.894,378.109 86.7274,378.442 62.5,375.5C 61.1667,375.667 59.8333,375.833 58.5,376C 57.6008,377.236 56.4341,378.07 55,378.5C 52.3617,377.083 50.5284,374.916 49.5,372C 43.548,369.713 39.2147,365.713 36.5,360C 37.4694,357.223 38.8028,354.723 40.5,352.5 Z"/></g>
<g><path style="opacity:1" fill="#535353" d="M 57.5,356.5 C 70.4438,359.801 83.6104,361.468 97,361.5C 108.953,361.105 120.787,359.938 132.5,358C 107.167,365.826 82.1672,365.326 57.5,356.5 Z"/></g>
</svg>
